<svg width="405" height="270" viewBox="0 0 405 270" fill="none" xmlns="http://www.w3.org/2000/svg">
<path d="M196.941 98.3053C199.548 93.9417 205.79 93.7237 208.695 97.8948L218.988 112.675C220.816 115.299 220.905 118.76 219.215 121.474L193.848 162.228C192.388 164.574 189.82 166 187.056 166H168.836C163.401 166 160.039 160.076 162.826 155.41L196.941 98.3053Z" fill="#706F6F"/>
<path d="M206.198 209.891C203.574 214.225 197.359 214.423 194.465 210.265L184.136 195.427C182.31 192.803 182.221 189.342 183.912 186.628L209.258 145.929C210.735 143.557 213.343 142.128 216.137 142.159L234.738 142.364C240.157 142.424 243.455 148.354 240.649 152.989L206.198 209.891Z" fill="#706F6F"/>
<circle cx="257" cy="106" r="11" fill="#706F6F"/>
<circle cx="257" cy="106" r="19.5" stroke="#0033CC" stroke-width="3"/>
</svg>
